<?xml version="1.0" encoding="UTF-8"?>
<!DOCTYPE svg PUBLIC "-//W3C//DTD SVG 1.1//EN" "http://www.w3.org/Graphics/SVG/1.1/DTD/svg11.dtd">
<svg xmlns="http://www.w3.org/2000/svg" version="1.1" width="500px" height="500px" style="shape-rendering:geometricPrecision; text-rendering:geometricPrecision; image-rendering:optimizeQuality; fill-rule:evenodd; clip-rule:evenodd" xmlns:xlink="http://www.w3.org/1999/xlink">
<g><path style="opacity:1" fill="#0a0a0a" d="M 202.5,272.5 C 202.5,271.167 202.5,269.833 202.5,268.5C 200.5,268.5 198.5,268.5 196.5,268.5C 196.5,259.833 196.5,251.167 196.5,242.5C 199.167,242.5 201.833,242.5 204.5,242.5C 204.334,249.508 204.5,256.508 205,263.5C 205.513,262.473 206.013,261.473 206.5,260.5C 208.329,256.172 210.662,252.172 213.5,248.5C 214.491,255.313 214.825,262.313 214.5,269.5C 217.5,269.5 220.5,269.5 223.5,269.5C 223.5,265.167 223.5,260.833 223.5,256.5C 228.695,256.821 233.695,256.487 238.5,255.5C 238.5,253.5 238.5,251.5 238.5,249.5C 233.5,249.5 228.5,249.5 223.5,249.5C 223.5,246.833 223.5,244.167 223.5,241.5C 229.167,241.5 234.833,241.5 240.5,241.5C 240.802,238.941 240.468,236.607 239.5,234.5C 233.491,234.666 227.491,234.499 221.5,234C 224.971,227.86 229.971,223.526 236.5,221C 295.167,220.333 353.833,220.333 412.5,221C 416.458,224.54 417.291,228.706 415,233.5C 407.748,245.001 400.748,256.668 394,268.5C 390.663,272.847 386.496,276.014 381.5,278C 322.833,278.667 264.167,278.667 205.5,278C 203.329,276.826 202.329,274.993 202.5,272.5 Z M 286.5,233.5 C 289.167,233.5 291.833,233.5 294.5,233.5C 294.174,237.884 294.508,242.217 295.5,246.5C 296.107,246.376 296.44,246.043 296.5,245.5C 301.947,241.254 307.114,241.587 312,246.5C 313.361,252.407 313.861,258.407 313.5,264.5C 313.5,265.833 313.5,267.167 313.5,268.5C 310.833,268.5 308.167,268.5 305.5,268.5C 305.91,262.379 305.41,256.379 304,250.5C 301.936,249.409 299.769,249.242 297.5,250C 296.177,250.816 295.511,251.983 295.5,253.5C 294.513,258.305 294.179,263.305 294.5,268.5C 291.833,268.5 289.167,268.5 286.5,268.5C 286.5,256.833 286.5,245.167 286.5,233.5 Z M 264.5,249.5 C 264.5,255.833 264.5,262.167 264.5,268.5C 261.833,268.5 259.167,268.5 256.5,268.5C 256.649,267.448 256.483,266.448 256,265.5C 251,269.5 246,269.5 241,265.5C 238.949,261.648 239.449,258.148 242.5,255C 247.066,253.691 251.733,253.191 256.5,253.5C 256.982,249.478 255.148,247.478 251,247.5C 248.97,247.954 247.137,248.62 245.5,249.5C 244.391,249.443 243.391,249.11 242.5,248.5C 241.829,247.153 241.829,245.986 242.5,245C 248.889,241.803 255.223,241.803 261.5,245C 262.883,246.271 263.883,247.771 264.5,249.5 Z M 282.5,242.5 C 284.344,244.279 285.01,246.612 284.5,249.5C 281.348,248.959 278.848,249.959 277,252.5C 276.501,257.823 276.334,263.156 276.5,268.5C 273.833,268.5 271.167,268.5 268.5,268.5C 268.5,259.833 268.5,251.167 268.5,242.5C 271.167,242.5 273.833,242.5 276.5,242.5C 276.238,243.978 276.571,245.311 277.5,246.5C 279.054,244.907 280.721,243.574 282.5,242.5 Z M 339.5,248.5 C 339.5,255.167 339.5,261.833 339.5,268.5C 337.167,268.5 334.833,268.5 332.5,268.5C 331.707,264.835 330.374,264.835 328.5,268.5C 324.258,268.921 320.258,268.254 316.5,266.5C 315.735,263.904 315.401,261.237 315.5,258.5C 316.68,255.902 318.68,254.236 321.5,253.5C 325.167,253.5 328.833,253.5 332.5,253.5C 332.737,252.209 332.404,251.209 331.5,250.5C 330.481,248.899 328.981,247.899 327,247.5C 324.667,248.167 322.333,248.833 320,249.5C 318.124,248.381 317.291,246.714 317.5,244.5C 322.704,242.746 328.037,242.246 333.5,243C 335.996,244.331 337.996,246.164 339.5,248.5 Z M 351.5,242.5 C 351.238,243.978 351.571,245.311 352.5,246.5C 353.107,246.376 353.44,246.043 353.5,245.5C 361.183,240.28 366.683,241.947 370,250.5C 370.499,256.491 370.666,262.491 370.5,268.5C 367.833,268.5 365.167,268.5 362.5,268.5C 362.821,262.974 362.488,257.64 361.5,252.5C 361.126,250.05 359.626,249.05 357,249.5C 353.737,248.932 352.237,250.266 352.5,253.5C 351.513,258.305 351.179,263.305 351.5,268.5C 348.833,268.5 346.167,268.5 343.5,268.5C 343.5,259.833 343.5,251.167 343.5,242.5C 346.167,242.5 348.833,242.5 351.5,242.5 Z"/></g>
<g><path style="opacity:1" fill="#2d2d2d" d="M 199.5,229.5 C 205.572,230.712 206.905,233.878 203.5,239C 197.507,240.668 195.007,238.502 196,232.5C 197.145,231.364 198.312,230.364 199.5,229.5 Z"/></g>
<g><path style="opacity:1" fill="#1b1b1b" d="M 141.5,267.5 C 138.269,268.782 134.936,268.782 131.5,267.5C 129.638,265.109 128.304,262.442 127.5,259.5C 124.927,259.148 122.594,259.648 120.5,261C 121.833,263.667 121.833,266.333 120.5,269C 117.518,269.498 114.518,269.665 111.5,269.5C 111.5,257.5 111.5,245.5 111.5,233.5C 119.228,233.189 126.895,233.689 134.5,235C 140.76,238.765 142.927,244.265 141,251.5C 140.261,254.573 138.428,256.74 135.5,258C 138.146,260.802 140.146,263.968 141.5,267.5 Z M 132.5,244.5 C 132.834,247.188 132.168,249.521 130.5,251.5C 127.57,252.299 124.57,252.632 121.5,252.5C 121.5,248.833 121.5,245.167 121.5,241.5C 125.666,240.944 129.332,241.944 132.5,244.5 Z"/></g>
<g><path style="opacity:0.365" fill="#b0b0b0" d="M 286.5,233.5 C 289.287,232.523 292.287,232.19 295.5,232.5C 295.182,237.032 295.515,241.366 296.5,245.5C 296.44,246.043 296.107,246.376 295.5,246.5C 294.508,242.217 294.174,237.884 294.5,233.5C 291.833,233.5 289.167,233.5 286.5,233.5 Z"/></g>
<g><path style="opacity:0.208" fill="#b4b4b4" d="M 239.5,234.5 C 240.468,236.607 240.802,238.941 240.5,241.5C 234.833,241.5 229.167,241.5 223.5,241.5C 223.5,244.167 223.5,246.833 223.5,249.5C 222.523,246.713 222.19,243.713 222.5,240.5C 228.167,240.5 233.833,240.5 239.5,240.5C 239.5,238.5 239.5,236.5 239.5,234.5 Z"/></g>
<g><path style="opacity:1" fill="#171717" d="M 167.5,248.5 C 167.5,255.167 167.5,261.833 167.5,268.5C 164.833,268.5 162.167,268.5 159.5,268.5C 159.214,266.067 158.548,266.067 157.5,268.5C 149.285,271.809 143.952,269.309 141.5,261C 141.891,257.118 143.891,254.618 147.5,253.5C 151.5,253.5 155.5,253.5 159.5,253.5C 159.737,252.209 159.404,251.209 158.5,250.5C 154.349,248.224 150.182,248.557 146,251.5C 145.767,249.22 144.934,247.22 143.5,245.5C 149.73,241.418 156.397,240.585 163.5,243C 165.464,244.451 166.797,246.284 167.5,248.5 Z M 152.5,258.5 C 154.5,258.5 156.5,258.5 158.5,258.5C 158.5,259.5 158.5,260.5 158.5,261.5C 155.075,264.631 152.408,264.131 150.5,260C 151.044,259.283 151.711,258.783 152.5,258.5 Z"/></g>
<g><path style="opacity:1" fill="#202020" d="M 176.5,242.5 C 176.41,245.152 177.076,247.485 178.5,249.5C 179.756,252.767 180.923,256.101 182,259.5C 183.57,253.627 185.403,247.96 187.5,242.5C 190.167,242.5 192.833,242.5 195.5,242.5C 195.567,243.959 195.234,245.292 194.5,246.5C 192.435,254.028 189.768,261.361 186.5,268.5C 183.554,269.655 180.554,269.821 177.5,269C 173.073,260.218 169.74,251.051 167.5,241.5C 170.713,241.19 173.713,241.523 176.5,242.5 Z"/></g>
<g><path style="opacity:0.478" fill="#7a7a7a" d="M 282.5,242.5 C 283.209,241.596 284.209,241.263 285.5,241.5C 285.806,244.385 285.473,247.052 284.5,249.5C 285.01,246.612 284.344,244.279 282.5,242.5 Z"/></g>
<g><path style="opacity:0.386" fill="#a9a9a9" d="M 351.5,242.5 C 352.167,243.5 352.833,244.5 353.5,245.5C 353.44,246.043 353.107,246.376 352.5,246.5C 351.571,245.311 351.238,243.978 351.5,242.5 Z"/></g>
<g><path style="opacity:0.154" fill="#cfcfcf" d="M 204.5,242.5 C 205.167,248.5 205.833,254.5 206.5,260.5C 206.013,261.473 205.513,262.473 205,263.5C 204.5,256.508 204.334,249.508 204.5,242.5 Z"/></g>
<g><path style="opacity:0.647" fill="#7c7c7c" d="M 176.5,242.5 C 177.924,244.515 178.59,246.848 178.5,249.5C 177.076,247.485 176.41,245.152 176.5,242.5 Z"/></g>
<g><path style="opacity:0.498" fill="#a0a0a0" d="M 242.5,248.5 C 243.391,249.11 244.391,249.443 245.5,249.5C 244.053,250.885 243.053,250.552 242.5,248.5 Z"/></g>
<g><path style="opacity:0.859" fill="#656565" d="M 132.5,244.5 C 133.622,246.288 133.789,248.288 133,250.5C 132.329,251.252 131.496,251.586 130.5,251.5C 132.168,249.521 132.834,247.188 132.5,244.5 Z"/></g>
<g><path style="opacity:0.459" fill="#979797" d="M 158.5,250.5 C 159.404,251.209 159.737,252.209 159.5,253.5C 155.5,253.5 151.5,253.5 147.5,253.5C 151.442,253.125 155.109,252.125 158.5,250.5 Z"/></g>
<g><path style="opacity:0.51" fill="#7d7d7d" d="M 331.5,250.5 C 332.404,251.209 332.737,252.209 332.5,253.5C 328.833,253.5 325.167,253.5 321.5,253.5C 325.119,253.119 328.452,252.119 331.5,250.5 Z"/></g>
<g><path style="opacity:0.472" fill="#838383" d="M 361.5,252.5 C 362.488,257.64 362.821,262.974 362.5,268.5C 365.167,268.5 367.833,268.5 370.5,268.5C 367.713,269.477 364.713,269.81 361.5,269.5C 361.5,263.833 361.5,258.167 361.5,252.5 Z"/></g>
<g><path style="opacity:0.353" fill="#9d9d9d" d="M 167.5,248.5 C 168.491,255.313 168.825,262.313 168.5,269.5C 165.287,269.81 162.287,269.477 159.5,268.5C 162.167,268.5 164.833,268.5 167.5,268.5C 167.5,261.833 167.5,255.167 167.5,248.5 Z"/></g>
<g><path style="opacity:0.29" fill="#b5b5b5" d="M 187.5,242.5 C 193.167,241.167 198.833,241.167 204.5,242.5C 201.833,242.5 199.167,242.5 196.5,242.5C 196.5,251.167 196.5,259.833 196.5,268.5C 198.5,268.5 200.5,268.5 202.5,268.5C 202.5,269.833 202.5,271.167 202.5,272.5C 201.596,271.791 201.263,270.791 201.5,269.5C 199.5,269.5 197.5,269.5 195.5,269.5C 195.825,261.648 195.492,253.982 194.5,246.5C 195.234,245.292 195.567,243.959 195.5,242.5C 192.833,242.5 190.167,242.5 187.5,242.5 Z"/></g>
<g><path style="opacity:0.166" fill="#bfbfbf" d="M 238.5,255.5 C 233.695,256.487 228.695,256.821 223.5,256.5C 223.5,260.833 223.5,265.167 223.5,269.5C 220.5,269.5 217.5,269.5 214.5,269.5C 214.825,262.313 214.491,255.313 213.5,248.5C 213.783,247.711 214.283,247.044 215,246.5C 215.5,253.826 215.666,261.159 215.5,268.5C 217.833,268.5 220.167,268.5 222.5,268.5C 222.5,264.167 222.5,259.833 222.5,255.5C 227.833,255.5 233.167,255.5 238.5,255.5 Z"/></g>
<g><path style="opacity:0.667" fill="#5a5a5a" d="M 264.5,249.5 C 265.491,255.979 265.824,262.646 265.5,269.5C 262.287,269.81 259.287,269.477 256.5,268.5C 259.167,268.5 261.833,268.5 264.5,268.5C 264.5,262.167 264.5,255.833 264.5,249.5 Z"/></g>
<g><path style="opacity:0.216" fill="#bebebe" d="M 152.5,258.5 C 154.607,257.532 156.941,257.198 159.5,257.5C 159.768,259.099 159.434,260.432 158.5,261.5C 158.5,260.5 158.5,259.5 158.5,258.5C 156.5,258.5 154.5,258.5 152.5,258.5 Z"/></g>
<g><path style="opacity:0.999" fill="#2c2c2c" d="M 247.5,257.5 C 250.5,257.5 253.5,257.5 256.5,257.5C 255.729,263.802 252.563,265.468 247,262.5C 246.36,260.735 246.527,259.068 247.5,257.5 Z"/></g>
<g><path style="opacity:1" fill="#333333" d="M 323.5,257.5 C 326.5,257.5 329.5,257.5 332.5,257.5C 331.978,263.259 328.978,265.259 323.5,263.5C 321.191,261.308 321.191,259.308 323.5,257.5 Z"/></g>
<g><path style="opacity:0.808" fill="#646464" d="M 315.5,258.5 C 315.401,261.237 315.735,263.904 316.5,266.5C 315.883,266.389 315.383,266.056 315,265.5C 314.768,266.737 314.268,267.737 313.5,268.5C 313.5,267.167 313.5,265.833 313.5,264.5C 314.167,262.5 314.833,260.5 315.5,258.5 Z"/></g>
<g><path style="opacity:0.035" fill="#dedede" d="M 159.5,268.5 C 158.833,268.5 158.167,268.5 157.5,268.5C 158.548,266.067 159.214,266.067 159.5,268.5 Z"/></g>
<g><path style="opacity:0.482" fill="#8b8b8b" d="M 131.5,267.5 C 134.936,268.782 138.269,268.782 141.5,267.5C 142.043,267.56 142.376,267.893 142.5,268.5C 140.667,268.833 138.833,269.167 137,269.5C 134.705,269.453 132.871,268.787 131.5,267.5 Z"/></g>
<g><path style="opacity:0.485" fill="#8a8a8a" d="M 295.5,253.5 C 295.5,258.833 295.5,264.167 295.5,269.5C 292.287,269.81 289.287,269.477 286.5,268.5C 289.167,268.5 291.833,268.5 294.5,268.5C 294.179,263.305 294.513,258.305 295.5,253.5 Z"/></g>
<g><path style="opacity:0.482" fill="#828282" d="M 339.5,248.5 C 340.491,255.313 340.825,262.313 340.5,269.5C 336.97,270.011 333.804,269.344 331,267.5C 330.329,268.252 329.496,268.586 328.5,268.5C 330.374,264.835 331.707,264.835 332.5,268.5C 334.833,268.5 337.167,268.5 339.5,268.5C 339.5,261.833 339.5,255.167 339.5,248.5 Z"/></g>
<g><path style="opacity:0.487" fill="#888888" d="M 352.5,253.5 C 352.5,258.833 352.5,264.167 352.5,269.5C 349.287,269.81 346.287,269.477 343.5,268.5C 346.167,268.5 348.833,268.5 351.5,268.5C 351.179,263.305 351.513,258.305 352.5,253.5 Z"/></g>
</svg>
