<?xml version="1.0" encoding="UTF-8"?>
<!DOCTYPE svg PUBLIC "-//W3C//DTD SVG 1.1//EN" "http://www.w3.org/Graphics/SVG/1.1/DTD/svg11.dtd">
<svg xmlns="http://www.w3.org/2000/svg" version="1.1" width="1080px" height="1080px" style="shape-rendering:geometricPrecision; text-rendering:geometricPrecision; image-rendering:optimizeQuality; fill-rule:evenodd; clip-rule:evenodd" xmlns:xlink="http://www.w3.org/1999/xlink">
<g><path style="opacity:1" fill="#fefefe" d="M -0.5,-0.5 C 359.5,-0.5 719.5,-0.5 1079.5,-0.5C 1079.5,359.5 1079.5,719.5 1079.5,1079.5C 719.5,1079.5 359.5,1079.5 -0.5,1079.5C -0.5,719.5 -0.5,359.5 -0.5,-0.5 Z"/></g>
<g><path style="opacity:1" fill="#010101" d="M 424.5,525.5 C 430.31,524.51 436.31,524.177 442.5,524.5C 442.333,539.837 442.5,555.17 443,570.5C 449.667,559.167 456.333,547.833 463,536.5C 463.5,551.496 463.667,566.496 463.5,581.5C 469.833,581.5 476.167,581.5 482.5,581.5C 483.493,572.682 483.827,563.682 483.5,554.5C 494.5,554.5 505.5,554.5 516.5,554.5C 516.5,549.5 516.5,544.5 516.5,539.5C 505.679,538.505 494.679,538.172 483.5,538.5C 483.5,533.167 483.5,527.833 483.5,522.5C 495.5,522.5 507.5,522.5 519.5,522.5C 519.5,517.5 519.5,512.5 519.5,507.5C 506.833,506.833 494.167,506.167 481.5,505.5C 490.485,488.693 504.485,479.193 523.5,477C 644.5,476.333 765.5,476.333 886.5,477C 895.657,480.812 899.49,487.645 898,497.5C 882.432,525.405 866.432,553.072 850,580.5C 841.36,592.118 829.86,599.285 815.5,602C 693.167,602.667 570.833,602.667 448.5,602C 440.005,597.849 436.005,591.016 436.5,581.5C 432.5,581.5 428.5,581.5 424.5,581.5C 424.5,562.833 424.5,544.167 424.5,525.5 Z"/></g>
<g><path style="opacity:1" fill="#060606" d="M 429.5,498.5 C 438.998,497.173 443.498,501.173 443,510.5C 440.497,516.461 435.997,518.628 429.5,517C 422.84,510.666 422.84,504.5 429.5,498.5 Z"/></g>
<g><path style="opacity:1" fill="#fdfdfd" d="M 637.5,502.5 C 637.334,512.839 637.5,523.172 638,533.5C 638.717,532.956 639.217,532.289 639.5,531.5C 645.814,524.12 653.814,521.62 663.5,524C 670,526.5 674.5,531 677,537.5C 677.5,552.163 677.667,566.83 677.5,581.5C 671.5,581.5 665.5,581.5 659.5,581.5C 659.667,569.829 659.5,558.162 659,546.5C 655.107,539.227 649.607,537.727 642.5,542C 640.106,543.952 638.606,546.452 638,549.5C 637.5,560.161 637.333,570.828 637.5,581.5C 631.5,581.5 625.5,581.5 619.5,581.5C 619.5,555.167 619.5,528.833 619.5,502.5C 625.5,502.5 631.5,502.5 637.5,502.5 Z"/></g>
<g><path style="opacity:1" fill="#404040" d="M 637.5,502.5 C 638.167,512.167 638.833,521.833 639.5,531.5C 639.217,532.289 638.717,532.956 638,533.5C 637.5,523.172 637.334,512.839 637.5,502.5 Z"/></g>
<g><path style="opacity:1" fill="#545454" d="M 481.5,505.5 C 494.167,506.167 506.833,506.833 519.5,507.5C 519.167,507.5 518.833,507.5 518.5,507.5C 505.816,507.832 493.149,507.499 480.5,506.5C 480.624,505.893 480.957,505.56 481.5,505.5 Z"/></g>
<g><path style="opacity:1" fill="#040404" d="M 241.5,507.5 C 256.883,507.082 272.216,507.582 287.5,509C 302.826,514.474 308.66,525.308 305,541.5C 302.97,548.586 298.804,553.92 292.5,557.5C 297.375,565.418 302.375,573.251 307.5,581C 300.5,581.667 293.5,581.667 286.5,581C 283.087,574.173 279.421,567.506 275.5,561C 270.511,560.501 265.511,560.334 260.5,560.5C 260.5,567.5 260.5,574.5 260.5,581.5C 254.167,581.5 247.833,581.5 241.5,581.5C 241.5,556.833 241.5,532.167 241.5,507.5 Z"/></g>
<g><path style="opacity:1" fill="#888888" d="M 518.5,507.5 C 518.833,507.5 519.167,507.5 519.5,507.5C 519.5,512.5 519.5,517.5 519.5,522.5C 507.5,522.5 495.5,522.5 483.5,522.5C 483.167,522.5 482.833,522.5 482.5,522.5C 494.322,521.505 506.322,521.172 518.5,521.5C 518.5,516.833 518.5,512.167 518.5,507.5 Z"/></g>
<g><path style="opacity:1" fill="#fcfcfc" d="M 260.5,522.5 C 268.253,522.104 275.92,522.604 283.5,524C 287.305,528.091 288.472,532.924 287,538.5C 286.315,541.057 284.815,542.891 282.5,544C 275.254,545.391 267.921,545.891 260.5,545.5C 260.5,537.833 260.5,530.167 260.5,522.5 Z"/></g>
<g><path style="opacity:1" fill="#050505" d="M 325.5,547.5 C 332.167,547.5 338.833,547.5 345.5,547.5C 345.768,545.901 345.434,544.568 344.5,543.5C 343.746,540.909 342.079,539.076 339.5,538C 331.75,536.659 324.416,537.826 317.5,541.5C 314.892,537.836 313.392,533.836 313,529.5C 326.98,522.321 341.146,521.821 355.5,528C 359.381,530.928 361.881,534.761 363,539.5C 363.5,553.496 363.667,567.496 363.5,581.5C 357.5,581.5 351.5,581.5 345.5,581.5C 345.662,579.473 345.495,577.473 345,575.5C 335.951,583.296 326.118,584.462 315.5,579C 308.099,571.968 306.599,563.801 311,554.5C 314.858,550.154 319.692,547.821 325.5,547.5 Z"/></g>
<g><path style="opacity:1" fill="#c3c3c3" d="M 405.5,524.5 C 417.833,523.167 430.167,523.167 442.5,524.5C 436.31,524.177 430.31,524.51 424.5,525.5C 424.167,525.5 423.833,525.5 423.5,525.5C 417.69,524.51 411.69,524.177 405.5,524.5 Z"/></g>
<g><path style="opacity:1" fill="#fafafa" d="M 534.5,547.5 C 541.167,547.5 547.833,547.5 554.5,547.5C 554.784,545.585 554.451,543.919 553.5,542.5C 552.327,540.496 550.66,538.996 548.5,538C 540.942,536.845 533.776,538.012 527,541.5C 526.055,541.095 525.388,540.428 525,539.5C 523.361,536.258 522.361,532.924 522,529.5C 532.57,524.266 543.737,522.433 555.5,524C 563.594,525.952 569.094,530.785 572,538.5C 572.5,552.829 572.667,567.163 572.5,581.5C 566.5,581.5 560.5,581.5 554.5,581.5C 554.662,579.473 554.495,577.473 554,575.5C 546.694,582.493 538.194,584.326 528.5,581C 520.659,577.822 516.992,571.989 517.5,563.5C 518.582,553.42 524.249,548.087 534.5,547.5 Z"/></g>
<g><path style="opacity:1" fill="#fdfdfd" d="M 597.5,524.5 C 597.335,527.518 597.502,530.518 598,533.5C 598.717,532.956 599.217,532.289 599.5,531.5C 603.707,525.898 609.373,523.232 616.5,523.5C 616.5,528.833 616.5,534.167 616.5,539.5C 607.557,538.714 601.391,542.381 598,550.5C 597.5,560.828 597.334,571.161 597.5,581.5C 591.5,581.5 585.5,581.5 579.5,581.5C 579.5,562.5 579.5,543.5 579.5,524.5C 585.5,524.5 591.5,524.5 597.5,524.5 Z"/></g>
<g><path style="opacity:1" fill="#fafafa" d="M 697.5,547.5 C 704.167,547.5 710.833,547.5 717.5,547.5C 717.768,545.901 717.434,544.568 716.5,543.5C 715.647,540.482 713.647,538.649 710.5,538C 703.225,536.674 696.392,537.841 690,541.5C 686.663,538.163 684.996,534.163 685,529.5C 698.97,522.199 713.137,521.699 727.5,528C 731.381,530.928 733.881,534.761 735,539.5C 735.5,553.496 735.667,567.496 735.5,581.5C 729.5,581.5 723.5,581.5 717.5,581.5C 717.662,579.473 717.495,577.473 717,575.5C 707.99,583.294 698.156,584.46 687.5,579C 680.009,572.006 678.509,563.84 683,554.5C 686.878,550.144 691.711,547.811 697.5,547.5 Z"/></g>
<g><path style="opacity:1" fill="#fdfdfd" d="M 773.5,523.5 C 785.969,521.482 794.802,526.149 800,537.5C 800.5,552.163 800.667,566.83 800.5,581.5C 794.5,581.5 788.5,581.5 782.5,581.5C 782.667,569.829 782.5,558.162 782,546.5C 778.657,539.752 773.49,537.919 766.5,541C 763.894,542.938 762.061,545.438 761,548.5C 760.5,559.495 760.333,570.495 760.5,581.5C 754.5,581.5 748.5,581.5 742.5,581.5C 742.5,562.5 742.5,543.5 742.5,524.5C 748.5,524.5 754.5,524.5 760.5,524.5C 760.336,527.187 760.503,529.854 761,532.5C 764.299,528.118 768.466,525.118 773.5,523.5 Z"/></g>
<g><path style="opacity:1" fill="#040404" d="M 405.5,524.5 C 411.69,524.177 417.69,524.51 423.5,525.5C 416.705,543.883 409.705,562.216 402.5,580.5C 396.167,581.833 389.833,581.833 383.5,580.5C 376.593,561.944 369.593,543.444 362.5,525C 368.859,524.169 375.193,524.336 381.5,525.5C 385.104,537.978 389.104,550.311 393.5,562.5C 397.808,549.936 401.808,537.269 405.5,524.5 Z"/></g>
<g><path style="opacity:1" fill="#707070" d="M 597.5,524.5 C 598.167,526.833 598.833,529.167 599.5,531.5C 599.217,532.289 598.717,532.956 598,533.5C 597.502,530.518 597.335,527.518 597.5,524.5 Z"/></g>
<g><path style="opacity:1" fill="#484848" d="M 482.5,522.5 C 482.833,522.5 483.167,522.5 483.5,522.5C 483.5,527.833 483.5,533.167 483.5,538.5C 494.679,538.172 505.679,538.505 516.5,539.5C 516.167,539.5 515.833,539.5 515.5,539.5C 504.5,539.5 493.5,539.5 482.5,539.5C 482.5,533.833 482.5,528.167 482.5,522.5 Z"/></g>
<g><path style="opacity:1" fill="#979797" d="M 344.5,543.5 C 345.434,544.568 345.768,545.901 345.5,547.5C 338.833,547.5 332.167,547.5 325.5,547.5C 331.645,546.51 337.978,546.177 344.5,546.5C 344.5,545.5 344.5,544.5 344.5,543.5 Z"/></g>
<g><path style="opacity:1" fill="#5c5c5c" d="M 553.5,542.5 C 554.451,543.919 554.784,545.585 554.5,547.5C 547.833,547.5 541.167,547.5 534.5,547.5C 540.645,546.51 546.978,546.177 553.5,546.5C 553.5,545.167 553.5,543.833 553.5,542.5 Z"/></g>
<g><path style="opacity:1" fill="#666666" d="M 716.5,543.5 C 717.434,544.568 717.768,545.901 717.5,547.5C 710.833,547.5 704.167,547.5 697.5,547.5C 703.645,546.51 709.978,546.177 716.5,546.5C 716.5,545.5 716.5,544.5 716.5,543.5 Z"/></g>
<g><path style="opacity:1" fill="#8a8a8a" d="M 515.5,539.5 C 515.833,539.5 516.167,539.5 516.5,539.5C 516.5,544.5 516.5,549.5 516.5,554.5C 505.5,554.5 494.5,554.5 483.5,554.5C 483.827,563.682 483.493,572.682 482.5,581.5C 482.5,572.167 482.5,562.833 482.5,553.5C 493.5,553.5 504.5,553.5 515.5,553.5C 515.5,548.833 515.5,544.167 515.5,539.5 Z"/></g>
<g><path style="opacity:1" fill="#868686" d="M 330.5,557.5 C 335.305,556.513 340.305,556.179 345.5,556.5C 345.802,559.059 345.468,561.393 344.5,563.5C 344.5,561.5 344.5,559.5 344.5,557.5C 339.833,557.5 335.167,557.5 330.5,557.5 Z"/></g>
<g><path style="opacity:1" fill="#767676" d="M 702.5,557.5 C 707.305,556.513 712.305,556.179 717.5,556.5C 717.795,558.735 717.461,560.735 716.5,562.5C 716.5,560.833 716.5,559.167 716.5,557.5C 711.833,557.5 707.167,557.5 702.5,557.5 Z"/></g>
<g><path style="opacity:1" fill="#fafafa" d="M 330.5,557.5 C 335.167,557.5 339.833,557.5 344.5,557.5C 344.5,559.5 344.5,561.5 344.5,563.5C 343.607,566.461 341.607,568.294 338.5,569C 329.199,572.004 325.032,568.837 326,559.5C 327.33,558.418 328.83,557.751 330.5,557.5 Z"/></g>
<g><path style="opacity:1" fill="#070707" d="M 537.5,557.5 C 543.167,557.5 548.833,557.5 554.5,557.5C 554.966,565.535 551.133,569.535 543,569.5C 534.351,568.537 532.517,564.537 537.5,557.5 Z"/></g>
<g><path style="opacity:1" fill="#050505" d="M 702.5,557.5 C 707.167,557.5 711.833,557.5 716.5,557.5C 716.5,559.167 716.5,560.833 716.5,562.5C 715.733,565.735 713.733,567.901 710.5,569C 707.167,569.667 703.833,569.667 700.5,569C 697.71,566.79 696.877,563.956 698,560.5C 698.918,558.624 700.418,557.624 702.5,557.5 Z"/></g>
</svg>
